%FSLAX34Y34*%
%MOMM*%
%LNSOLDERMASK_BOTTOM*%
G71*
G01*
%ADD10C, 2.900*%
%ADD11C, 2.200*%
%ADD12C, 2.000*%
%ADD13C, 2.700*%
%ADD14C, 2.300*%
%ADD15R, 1.600X1.600*%
%LPD*%
X451000Y470000D02*
G54D10*
D03*
X400200Y470000D02*
G54D10*
D03*
X349400Y470000D02*
G54D10*
D03*
X150962Y470000D02*
G54D10*
D03*
X100162Y470000D02*
G54D10*
D03*
X49362Y470000D02*
G54D10*
D03*
X451000Y169962D02*
G54D10*
D03*
X400200Y169963D02*
G54D10*
D03*
X349400Y169962D02*
G54D10*
D03*
X150962Y169962D02*
G54D10*
D03*
X100162Y169963D02*
G54D10*
D03*
X49362Y169962D02*
G54D10*
D03*
X237281Y40050D02*
G54D11*
D03*
G36*
X273681Y29050D02*
X251681Y29050D01*
X251681Y51050D01*
X273681Y51050D01*
X273681Y29050D01*
G37*
X237778Y460000D02*
G54D11*
D03*
G36*
X274178Y449000D02*
X252178Y449000D01*
X252178Y471000D01*
X274178Y471000D01*
X274178Y449000D01*
G37*
G36*
X202500Y175000D02*
X222500Y175000D01*
X222500Y155000D01*
X202500Y155000D01*
X202500Y175000D01*
G37*
X212500Y139600D02*
G54D12*
D03*
X212500Y114200D02*
G54D12*
D03*
X212500Y88800D02*
G54D12*
D03*
X288700Y165000D02*
G54D12*
D03*
X288700Y139600D02*
G54D12*
D03*
X288700Y114200D02*
G54D12*
D03*
X288700Y88800D02*
G54D12*
D03*
X187638Y114400D02*
G54D12*
D03*
X187638Y165200D02*
G54D12*
D03*
G36*
X202500Y317500D02*
X222500Y317500D01*
X222500Y297500D01*
X202500Y297500D01*
X202500Y317500D01*
G37*
X212500Y282100D02*
G54D12*
D03*
X212500Y256700D02*
G54D12*
D03*
X212500Y231300D02*
G54D12*
D03*
X288700Y307500D02*
G54D12*
D03*
X288700Y282100D02*
G54D12*
D03*
X288700Y256700D02*
G54D12*
D03*
X288700Y231300D02*
G54D12*
D03*
G36*
X202500Y435000D02*
X222500Y435000D01*
X222500Y415000D01*
X202500Y415000D01*
X202500Y435000D01*
G37*
X212500Y399600D02*
G54D12*
D03*
X212500Y374200D02*
G54D12*
D03*
X212500Y348800D02*
G54D12*
D03*
X288700Y425000D02*
G54D12*
D03*
X288700Y399600D02*
G54D12*
D03*
X288700Y374200D02*
G54D12*
D03*
X288700Y348800D02*
G54D12*
D03*
X17500Y17500D02*
G54D13*
D03*
G36*
X34000Y31000D02*
X61000Y31000D01*
X61000Y4000D01*
X34000Y4000D01*
X34000Y31000D01*
G37*
X68300Y47500D02*
G54D14*
D03*
X17500Y47500D02*
G54D14*
D03*
X172500Y17500D02*
G54D13*
D03*
G36*
X189000Y31000D02*
X216000Y31000D01*
X216000Y4000D01*
X189000Y4000D01*
X189000Y31000D01*
G37*
X217842Y61518D02*
G54D12*
D03*
X167042Y61518D02*
G54D12*
D03*
X150342Y144018D02*
G54D12*
D03*
X99542Y144018D02*
G54D12*
D03*
X150342Y119018D02*
G54D12*
D03*
X99542Y119018D02*
G54D12*
D03*
X237237Y197300D02*
G54D12*
D03*
X288038Y197300D02*
G54D12*
D03*
X349738Y97300D02*
G54D12*
D03*
X400538Y97300D02*
G54D12*
D03*
X118150Y21488D02*
G54D12*
D03*
G36*
X108150Y36888D02*
X108150Y56888D01*
X128150Y56888D01*
X128150Y36888D01*
X108150Y36888D01*
G37*
G36*
X281500Y31000D02*
X308500Y31000D01*
X308500Y4000D01*
X281500Y4000D01*
X281500Y31000D01*
G37*
X317638Y114400D02*
G54D12*
D03*
X317638Y165200D02*
G54D12*
D03*
X67500Y75000D02*
G54D12*
D03*
X16700Y75000D02*
G54D12*
D03*
X120000Y95000D02*
G54D12*
D03*
X69200Y95000D02*
G54D12*
D03*
X349670Y17180D02*
G54D12*
D03*
X349670Y67980D02*
G54D12*
D03*
X322170Y17180D02*
G54D12*
D03*
X322170Y67980D02*
G54D12*
D03*
X377170Y17180D02*
G54D12*
D03*
X377170Y67980D02*
G54D12*
D03*
X400000Y125000D02*
G54D12*
D03*
X349200Y125000D02*
G54D12*
D03*
G36*
X441500Y31000D02*
X468500Y31000D01*
X468500Y4000D01*
X441500Y4000D01*
X441500Y31000D01*
G37*
X407170Y17180D02*
G54D12*
D03*
X407170Y67980D02*
G54D12*
D03*
X432170Y17180D02*
G54D12*
D03*
X432170Y67980D02*
G54D12*
D03*
X135650Y281488D02*
G54D12*
D03*
G36*
X125650Y296888D02*
X125650Y316888D01*
X145650Y316888D01*
X145650Y296888D01*
X125650Y296888D01*
G37*
X187638Y307701D02*
G54D12*
D03*
X187638Y256901D02*
G54D12*
D03*
X185400Y214638D02*
G54D12*
D03*
X135400Y214638D02*
G54D12*
D03*
X482500Y280000D02*
G54D14*
D03*
X482500Y229200D02*
G54D14*
D03*
X478595Y118842D02*
G54D12*
D03*
G36*
X468595Y108842D02*
X448595Y108842D01*
X448595Y128842D01*
X468595Y128842D01*
X468595Y108842D01*
G37*
X470726Y57137D02*
G54D12*
D03*
G36*
X460726Y67137D02*
X460726Y87137D01*
X480726Y87137D01*
X480726Y67137D01*
X460726Y67137D01*
G37*
X23912Y215574D02*
G54D12*
D03*
G36*
X33912Y225574D02*
X53912Y225574D01*
X53912Y205574D01*
X33912Y205574D01*
X33912Y225574D01*
G37*
X23912Y123075D02*
G54D12*
D03*
G36*
X33912Y133074D02*
X53912Y133074D01*
X53912Y113074D01*
X33912Y113074D01*
X33912Y133074D01*
G37*
X328170Y235387D02*
G54D12*
D03*
G36*
X338170Y225387D02*
X338170Y205387D01*
X318170Y205387D01*
X318170Y225387D01*
X338170Y225387D01*
G37*
X315138Y425201D02*
G54D12*
D03*
X315138Y374401D02*
G54D12*
D03*
X323225Y287464D02*
G54D12*
D03*
G36*
X313225Y297464D02*
X313225Y317464D01*
X333225Y317464D01*
X333225Y297464D01*
X313225Y297464D01*
G37*
X404680Y405331D02*
G54D12*
D03*
X404680Y354531D02*
G54D12*
D03*
X450000Y280000D02*
G54D14*
D03*
X450000Y229200D02*
G54D14*
D03*
X432500Y387325D02*
G54D12*
D03*
X432500Y336525D02*
G54D12*
D03*
X457500Y336875D02*
G54D12*
D03*
X457500Y387675D02*
G54D12*
D03*
X344680Y425331D02*
G54D12*
D03*
X344680Y374531D02*
G54D12*
D03*
X315000Y482500D02*
G54D12*
D03*
X264200Y482500D02*
G54D12*
D03*
X372683Y342738D02*
G54D12*
D03*
G36*
X362683Y332738D02*
X342683Y332738D01*
X342683Y352738D01*
X362683Y352738D01*
X362683Y332738D01*
G37*
X415000Y265000D02*
G54D12*
D03*
X364200Y265000D02*
G54D12*
D03*
X415000Y237500D02*
G54D12*
D03*
X364200Y237500D02*
G54D12*
D03*
X415000Y292500D02*
G54D12*
D03*
X364200Y292500D02*
G54D12*
D03*
X445000Y317500D02*
G54D12*
D03*
X394200Y317500D02*
G54D12*
D03*
X482170Y299680D02*
G54D12*
D03*
X482170Y350480D02*
G54D12*
D03*
X480183Y425238D02*
G54D12*
D03*
G36*
X470183Y415238D02*
X450183Y415238D01*
X450183Y435238D01*
X470183Y435238D01*
X470183Y415238D01*
G37*
X172900Y374638D02*
G54D12*
D03*
X172900Y424637D02*
G54D12*
D03*
X377180Y425331D02*
G54D12*
D03*
X377180Y374531D02*
G54D12*
D03*
X191200Y344638D02*
G54D12*
D03*
X140400Y344638D02*
G54D12*
D03*
X101200Y439637D02*
G54D12*
D03*
X50400Y439637D02*
G54D12*
D03*
X425215Y189950D02*
G54D12*
D03*
G36*
X415215Y199950D02*
X415215Y219950D01*
X435215Y219950D01*
X435215Y199950D01*
X415215Y199950D01*
G37*
X442500Y145000D02*
G54D12*
D03*
X391700Y145000D02*
G54D12*
D03*
X482500Y197500D02*
G54D13*
D03*
X482500Y160000D02*
G54D13*
D03*
G36*
X59000Y23103D02*
X66897Y31000D01*
X78103Y31000D01*
X86000Y23103D01*
X86000Y11897D01*
X78103Y4000D01*
X66897Y4000D01*
X59000Y11897D01*
X59000Y23103D01*
G37*
X267500Y165000D02*
G54D15*
D03*
X230000Y232500D02*
G54D15*
D03*
X237900Y348800D02*
G54D15*
D03*
X267500Y147500D02*
G54D15*
D03*
M02*
