; Drill file
; Format: 3.3 (000.000)
M48
METRIC
T01C0.3
T02C0.8
T03C1.0
T04C1.2
%
G05
G90
T01
X014.750Y005.750
X019.250Y006.250
X026.250Y013.250
X029.750Y005.500
X042.500Y008.250
X044.500Y040.500
X029.000Y045.250
X026.250Y036.250
T02
X001.670Y007.500
X002.390Y012.310
X004.390Y012.310
X006.920Y009.500
X006.750Y007.500
X009.950Y011.900
X009.950Y014.400
X015.030Y014.400
X015.030Y011.900
X018.760Y011.440
X021.250Y011.420
X021.250Y013.960
X021.250Y016.500
X018.760Y016.520
X018.540Y021.460
X021.250Y023.130
X021.250Y025.670
X018.760Y025.690
X021.250Y028.210
X021.250Y030.750
X018.760Y030.770
X019.120Y034.460
X021.250Y034.880
X021.250Y037.420
X021.250Y039.960
X021.250Y042.500
X017.290Y042.460
X017.290Y037.460
X014.040Y034.460
X013.560Y030.690
X013.560Y028.150
X013.540Y021.460
X004.390Y021.560
X002.390Y021.560
X012.000Y009.500
X011.820Y004.690
X011.820Y002.150
X016.700Y006.150
X021.780Y006.150
X021.250Y008.880
X023.730Y004.000
X026.270Y004.000
X028.870Y008.880
X028.870Y011.420
X028.870Y013.960
X028.870Y016.500
X031.760Y016.520
X028.800Y019.730
X028.870Y023.130
X028.870Y025.670
X028.870Y028.210
X028.870Y030.750
X032.320Y030.750
X032.320Y028.750
X036.420Y029.250
X036.420Y026.500
X036.420Y023.750
X032.820Y023.540
X032.820Y021.540
X041.500Y023.750
X041.500Y026.500
X041.500Y029.250
X039.420Y031.750
X037.270Y034.270
X035.270Y034.270
X034.470Y037.450
X031.510Y037.440
X028.870Y037.420
X028.870Y039.960
X028.870Y042.500
X031.510Y042.520
X034.470Y042.530
X037.720Y042.530
X040.470Y040.530
X043.250Y038.730
X045.750Y038.770
X046.020Y042.520
X048.020Y042.520
X048.220Y035.050
X045.750Y033.690
X044.500Y031.750
X043.250Y033.650
X040.470Y035.450
X037.720Y037.450
X028.870Y034.880
X026.320Y046.000
X026.420Y048.250
X023.780Y046.000
X031.500Y048.250
X010.120Y043.960
X005.040Y043.960
X023.720Y019.730
X031.760Y011.440
X034.920Y012.500
X034.970Y009.730
X034.970Y006.800
X032.220Y006.800
X032.220Y001.720
X034.970Y001.720
X037.720Y001.720
X040.720Y001.720
X043.220Y001.720
X043.220Y006.800
X040.720Y006.800
X037.720Y006.800
X040.050Y009.730
X040.000Y012.500
X039.170Y014.500
X044.250Y014.500
X045.860Y011.880
X047.860Y011.880
X047.070Y007.710
X047.070Y005.710
X042.520Y019.000
X042.520Y021.000
X048.220Y029.970
T03
X001.750Y004.750
X006.830Y004.750
X045.000Y022.920
X048.250Y022.920
X048.250Y028.000
X045.000Y028.000
T04
X001.750Y001.750
X004.750Y001.750
X007.250Y001.750
X017.250Y001.750
X020.250Y001.750
X029.500Y001.750
X045.500Y001.750
X048.250Y016.000
X045.100Y017.000
X048.250Y019.750
X040.020Y017.000
X034.940Y017.000
X015.100Y017.000
X010.020Y017.000
X004.940Y017.000
X004.940Y047.000
X010.020Y047.000
X015.100Y047.000
X034.940Y047.000
X040.020Y047.000
X045.100Y047.000
M30
