%FSLAX34Y34*%
%MOMM*%
%LNCOPPER_TOP*%
G71*
G01*
%ADD10C, 2.900*%
%ADD11C, 2.200*%
%ADD12C, 2.000*%
%ADD13C, 2.700*%
%ADD14C, 2.300*%
%ADD15C, 1.000*%
%ADD16C, 0.900*%
%ADD17C, 1.100*%
%ADD18C, 0.700*%
%ADD19C, 0.800*%
%ADD20C, 0.238*%
%ADD21C, 0.150*%
%ADD22C, 0.660*%
%ADD23C, 0.500*%
%ADD24C, 0.600*%
%ADD25C, 0.533*%
%ADD26C, 0.767*%
%ADD27C, 0.633*%
%ADD28C, 2.500*%
%ADD29C, 1.800*%
%ADD30C, 1.600*%
%ADD31C, 2.300*%
%ADD32C, 1.900*%
%ADD33C, 0.700*%
%ADD34C, 0.300*%
%ADD35C, 0.260*%
%LPD*%
G36*
X-200000Y700000D02*
X700000Y700000D01*
X700000Y-200000D01*
X-200000Y-200000D01*
X-200000Y700000D01*
G37*
%LPC*%
X451000Y470000D02*
G54D10*
D03*
X400200Y470000D02*
G54D10*
D03*
X349400Y470000D02*
G54D10*
D03*
X150962Y470000D02*
G54D10*
D03*
X100162Y470000D02*
G54D10*
D03*
X49362Y470000D02*
G54D10*
D03*
X451000Y169962D02*
G54D10*
D03*
X400200Y169963D02*
G54D10*
D03*
X349400Y169962D02*
G54D10*
D03*
X150962Y169962D02*
G54D10*
D03*
X100162Y169963D02*
G54D10*
D03*
X49362Y169962D02*
G54D10*
D03*
X237281Y40050D02*
G54D11*
D03*
G36*
X273681Y29050D02*
X251681Y29050D01*
X251681Y51050D01*
X273681Y51050D01*
X273681Y29050D01*
G37*
X237778Y460000D02*
G54D11*
D03*
G36*
X274178Y449000D02*
X252178Y449000D01*
X252178Y471000D01*
X274178Y471000D01*
X274178Y449000D01*
G37*
G36*
X202500Y175000D02*
X222500Y175000D01*
X222500Y155000D01*
X202500Y155000D01*
X202500Y175000D01*
G37*
X212500Y139600D02*
G54D12*
D03*
X212500Y114200D02*
G54D12*
D03*
X212500Y88800D02*
G54D12*
D03*
X288700Y165000D02*
G54D12*
D03*
X288700Y139600D02*
G54D12*
D03*
X288700Y114200D02*
G54D12*
D03*
X288700Y88800D02*
G54D12*
D03*
X187638Y114400D02*
G54D12*
D03*
X187638Y165200D02*
G54D12*
D03*
G36*
X202500Y317500D02*
X222500Y317500D01*
X222500Y297500D01*
X202500Y297500D01*
X202500Y317500D01*
G37*
X212500Y282100D02*
G54D12*
D03*
X212500Y256700D02*
G54D12*
D03*
X212500Y231300D02*
G54D12*
D03*
X288700Y307500D02*
G54D12*
D03*
X288700Y282100D02*
G54D12*
D03*
X288700Y256700D02*
G54D12*
D03*
X288700Y231300D02*
G54D12*
D03*
G36*
X202500Y435000D02*
X222500Y435000D01*
X222500Y415000D01*
X202500Y415000D01*
X202500Y435000D01*
G37*
X212500Y399600D02*
G54D12*
D03*
X212500Y374200D02*
G54D12*
D03*
X212500Y348800D02*
G54D12*
D03*
X288700Y425000D02*
G54D12*
D03*
X288700Y399600D02*
G54D12*
D03*
X288700Y374200D02*
G54D12*
D03*
X288700Y348800D02*
G54D12*
D03*
X17500Y17500D02*
G54D13*
D03*
G36*
X34000Y31000D02*
X61000Y31000D01*
X61000Y4000D01*
X34000Y4000D01*
X34000Y31000D01*
G37*
X68300Y47500D02*
G54D14*
D03*
X17500Y47500D02*
G54D14*
D03*
X172500Y17500D02*
G54D13*
D03*
G36*
X189000Y31000D02*
X216000Y31000D01*
X216000Y4000D01*
X189000Y4000D01*
X189000Y31000D01*
G37*
X217842Y61518D02*
G54D12*
D03*
X167042Y61518D02*
G54D12*
D03*
X150342Y144018D02*
G54D12*
D03*
X99542Y144018D02*
G54D12*
D03*
X150342Y119018D02*
G54D12*
D03*
X99542Y119018D02*
G54D12*
D03*
X237237Y197300D02*
G54D12*
D03*
X288038Y197300D02*
G54D12*
D03*
X349738Y97300D02*
G54D12*
D03*
X400538Y97300D02*
G54D12*
D03*
X118150Y21488D02*
G54D12*
D03*
G36*
X108150Y36888D02*
X108150Y56888D01*
X128150Y56888D01*
X128150Y36888D01*
X108150Y36888D01*
G37*
G36*
X281500Y31000D02*
X308500Y31000D01*
X308500Y4000D01*
X281500Y4000D01*
X281500Y31000D01*
G37*
X317638Y114400D02*
G54D12*
D03*
X317638Y165200D02*
G54D12*
D03*
X67500Y75000D02*
G54D12*
D03*
X16700Y75000D02*
G54D12*
D03*
X120000Y95000D02*
G54D12*
D03*
X69200Y95000D02*
G54D12*
D03*
X349670Y17180D02*
G54D12*
D03*
X349670Y67980D02*
G54D12*
D03*
X322170Y17180D02*
G54D12*
D03*
X322170Y67980D02*
G54D12*
D03*
X377170Y17180D02*
G54D12*
D03*
X377170Y67980D02*
G54D12*
D03*
X400000Y125000D02*
G54D12*
D03*
X349200Y125000D02*
G54D12*
D03*
G36*
X441500Y31000D02*
X468500Y31000D01*
X468500Y4000D01*
X441500Y4000D01*
X441500Y31000D01*
G37*
X407170Y17180D02*
G54D12*
D03*
X407170Y67980D02*
G54D12*
D03*
X432170Y17180D02*
G54D12*
D03*
X432170Y67980D02*
G54D12*
D03*
G54D15*
X288038Y197300D02*
X267300Y197300D01*
X245000Y175000D01*
X245000Y87500D01*
X232500Y75000D01*
X127500Y75000D01*
X117500Y65000D01*
X117500Y47538D01*
X118150Y46888D01*
G54D16*
X400200Y169963D02*
X382463Y169963D01*
X297500Y55000D02*
G54D17*
D03*
G54D18*
X297500Y55000D02*
X315000Y37500D01*
X345000Y37500D01*
X350000Y32500D01*
X350000Y17510D01*
X349670Y17180D01*
X135650Y281488D02*
G54D12*
D03*
G36*
X125650Y296888D02*
X125650Y316888D01*
X145650Y316888D01*
X145650Y296888D01*
X125650Y296888D01*
G37*
X187638Y307701D02*
G54D12*
D03*
X187638Y256901D02*
G54D12*
D03*
X185400Y214638D02*
G54D12*
D03*
X135400Y214638D02*
G54D12*
D03*
X482500Y280000D02*
G54D14*
D03*
X482500Y229200D02*
G54D14*
D03*
X478595Y118842D02*
G54D12*
D03*
G36*
X468595Y108842D02*
X448595Y108842D01*
X448595Y128842D01*
X468595Y128842D01*
X468595Y108842D01*
G37*
X470726Y57137D02*
G54D12*
D03*
G36*
X460726Y67137D02*
X460726Y87137D01*
X480726Y87137D01*
X480726Y67137D01*
X460726Y67137D01*
G37*
X23912Y215574D02*
G54D12*
D03*
G36*
X33912Y225574D02*
X53912Y225574D01*
X53912Y205574D01*
X33912Y205574D01*
X33912Y225574D01*
G37*
X23912Y123075D02*
G54D12*
D03*
G36*
X33912Y133074D02*
X53912Y133074D01*
X53912Y113074D01*
X33912Y113074D01*
X33912Y133074D01*
G37*
G54D15*
X135650Y306888D02*
X135650Y306850D01*
X152500Y290000D01*
X152500Y270000D01*
X140000Y257500D01*
X102500Y257500D01*
X75000Y230000D01*
X75000Y122500D01*
X100000Y97500D01*
X100000Y82500D01*
X117500Y65000D01*
X328170Y235387D02*
G54D12*
D03*
G36*
X338170Y225387D02*
X338170Y205387D01*
X318170Y205387D01*
X318170Y225387D01*
X338170Y225387D01*
G37*
G54D15*
X212500Y307500D02*
X235000Y307500D01*
X250000Y322500D01*
X250000Y415000D01*
X260000Y425000D01*
X288700Y425000D01*
X315138Y425201D02*
G54D12*
D03*
X315138Y374401D02*
G54D12*
D03*
X323225Y287464D02*
G54D12*
D03*
G36*
X313225Y297464D02*
X313225Y317464D01*
X333225Y317464D01*
X333225Y297464D01*
X313225Y297464D01*
G37*
X404680Y405331D02*
G54D12*
D03*
X404680Y354531D02*
G54D12*
D03*
X450000Y280000D02*
G54D14*
D03*
X450000Y229200D02*
G54D14*
D03*
X432500Y387325D02*
G54D12*
D03*
X432500Y336525D02*
G54D12*
D03*
X457500Y336875D02*
G54D12*
D03*
X457500Y387675D02*
G54D12*
D03*
X344680Y425331D02*
G54D12*
D03*
X344680Y374531D02*
G54D12*
D03*
X315000Y482500D02*
G54D12*
D03*
X264200Y482500D02*
G54D12*
D03*
X372683Y342738D02*
G54D12*
D03*
G36*
X362683Y332738D02*
X342683Y332738D01*
X342683Y352738D01*
X362683Y352738D01*
X362683Y332738D01*
G37*
X415000Y265000D02*
G54D12*
D03*
X364200Y265000D02*
G54D12*
D03*
X415000Y237500D02*
G54D12*
D03*
X364200Y237500D02*
G54D12*
D03*
X415000Y292500D02*
G54D12*
D03*
X364200Y292500D02*
G54D12*
D03*
X445000Y317500D02*
G54D12*
D03*
X394200Y317500D02*
G54D12*
D03*
X482170Y299680D02*
G54D12*
D03*
X482170Y350480D02*
G54D12*
D03*
X480183Y425238D02*
G54D12*
D03*
G36*
X470183Y415238D02*
X450183Y415238D01*
X450183Y435238D01*
X470183Y435238D01*
X470183Y415238D01*
G37*
X445000Y405000D02*
G54D17*
D03*
G54D16*
X451000Y470000D02*
X451000Y451000D01*
X445000Y445000D01*
X445000Y405000D01*
X172900Y374638D02*
G54D12*
D03*
X172900Y424637D02*
G54D12*
D03*
X377180Y425331D02*
G54D12*
D03*
X377180Y374531D02*
G54D12*
D03*
G54D18*
X315000Y482500D02*
X315000Y455011D01*
X344680Y425331D01*
X262500Y362500D02*
G54D17*
D03*
G54D18*
X262500Y362500D02*
X262500Y315000D01*
X232500Y285000D01*
X232500Y251300D01*
X212500Y231300D01*
X191200Y344638D02*
G54D12*
D03*
X140400Y344638D02*
G54D12*
D03*
X290000Y452500D02*
G54D17*
D03*
G54D18*
X290000Y452500D02*
X287500Y452500D01*
X272500Y437500D01*
X247500Y437500D01*
X232500Y422500D01*
X232500Y340000D01*
X222500Y330000D01*
X205837Y330000D01*
X191200Y344638D01*
X101200Y439637D02*
G54D12*
D03*
X50400Y439637D02*
G54D12*
D03*
G54D19*
X40000Y500000D02*
X460000Y500000D01*
G54D19*
G75*
G01X460000Y500000D02*
G03X500000Y460000I40000J0D01*
G01*
G54D19*
G75*
G01X485000Y0D02*
G03X500000Y15000I0J15000D01*
G01*
G54D19*
X0Y460000D02*
X0Y15000D01*
G54D19*
G75*
G01X0Y15000D02*
G03X15000Y0I15000J0D01*
G01*
G54D19*
X485000Y0D02*
X15000Y0D01*
G54D19*
G75*
G01X0Y460000D02*
G03X40000Y500000I0J40000D01*
G01*
G54D19*
X500000Y15000D02*
X500000Y460000D01*
G54D15*
X117500Y70000D02*
X117500Y47538D01*
X118150Y46888D01*
G54D15*
X112500Y70000D02*
X122500Y70000D01*
G54D16*
X349400Y169962D02*
X339363Y180000D01*
X272500Y180000D01*
X262500Y170000D01*
X262500Y87500D01*
X220000Y45000D01*
X142500Y45000D01*
X131500Y34000D01*
G54D16*
X131500Y34000D02*
X106000Y34000D01*
X100000Y40000D01*
X100000Y70000D01*
X90000Y80000D01*
X90000Y95000D01*
X61926Y123074D01*
X43912Y123074D01*
G54D20*
X190550Y474722D02*
X190550Y488056D01*
G54D20*
X187884Y488056D02*
X193217Y488056D01*
G54D20*
X203217Y485556D02*
X203217Y477222D01*
X202550Y475556D01*
X201217Y474722D01*
X199884Y474722D01*
X198550Y475556D01*
X197884Y477222D01*
X197884Y485556D01*
X198550Y487222D01*
X199884Y488056D01*
X201217Y488056D01*
X202550Y487222D01*
X203217Y485556D01*
G54D20*
X207884Y474722D02*
X207884Y488056D01*
X211217Y488056D01*
X212550Y487222D01*
X213217Y485556D01*
X213217Y483889D01*
X212550Y482222D01*
X211217Y481389D01*
X207884Y481389D01*
G36*
X17500Y17500D02*
X2500Y17500D01*
X0Y15000D01*
X0Y10000D01*
X10000Y0D01*
X20000Y0D01*
X17500Y17500D01*
G37*
G54D21*
X17500Y17500D02*
X2500Y17500D01*
X0Y15000D01*
X0Y10000D01*
X10000Y0D01*
X20000Y0D01*
X17500Y17500D01*
X425215Y189950D02*
G54D12*
D03*
G36*
X415215Y199950D02*
X415215Y219950D01*
X435215Y219950D01*
X435215Y199950D01*
X415215Y199950D01*
G37*
X442500Y145000D02*
G54D12*
D03*
X391700Y145000D02*
G54D12*
D03*
G54D16*
X377170Y67980D02*
X375480Y67980D01*
X360000Y52500D01*
X317500Y52500D01*
X302500Y67500D01*
X282500Y67500D01*
X262500Y87500D01*
G54D18*
X352683Y342738D02*
X352683Y329817D01*
X357500Y325000D01*
X380000Y325000D01*
X392500Y337500D01*
X431525Y337500D01*
X432500Y336525D01*
G54D18*
X288700Y348800D02*
X313700Y348800D01*
X320000Y342500D01*
X352445Y342500D01*
X352683Y342738D01*
G54D16*
X257500Y82500D02*
X267500Y82500D01*
G54D22*
X391700Y145000D02*
X377500Y145000D01*
X372500Y140000D01*
X372500Y130000D01*
X367500Y125000D01*
X349200Y125000D01*
X482500Y197500D02*
G54D13*
D03*
X482500Y160000D02*
G54D13*
D03*
G36*
X59000Y23103D02*
X66897Y31000D01*
X78103Y31000D01*
X86000Y23103D01*
X86000Y11897D01*
X78103Y4000D01*
X66897Y4000D01*
X59000Y11897D01*
X59000Y23103D01*
G37*
G36*
X47500Y17500D02*
X72500Y17500D01*
X72500Y2500D01*
X47500Y2500D01*
X47500Y17500D01*
G37*
G54D23*
X47500Y17500D02*
X72500Y17500D01*
X72500Y2500D01*
X47500Y2500D01*
X47500Y17500D01*
G36*
X92500Y100000D02*
X100000Y100000D01*
X100000Y77500D01*
X92500Y77500D01*
X92500Y100000D01*
G37*
G54D21*
X92500Y100000D02*
X100000Y100000D01*
X100000Y77500D01*
X92500Y77500D01*
X92500Y100000D01*
G36*
X102500Y72500D02*
X115000Y72500D01*
X115000Y37500D01*
X102500Y37500D01*
X102500Y72500D01*
G37*
G54D21*
X102500Y72500D02*
X115000Y72500D01*
X115000Y37500D01*
X102500Y37500D01*
X102500Y72500D01*
G36*
X500000Y697500D02*
X805000Y697500D01*
X805000Y-237500D01*
X500000Y-237500D01*
X500000Y697500D01*
G37*
G54D24*
X500000Y697500D02*
X805000Y697500D01*
X805000Y-237500D01*
X500000Y-237500D01*
X500000Y697500D01*
G36*
X697500Y700000D02*
X-200000Y700000D01*
X-200000Y502500D01*
X697500Y502500D01*
X697500Y700000D01*
G37*
G54D24*
X697500Y700000D02*
X-200000Y700000D01*
X-200000Y502500D01*
X697500Y502500D01*
X697500Y700000D01*
G36*
X0Y697500D02*
X-200000Y697500D01*
X-200000Y-242500D01*
X0Y-242500D01*
X0Y697500D01*
G37*
G54D24*
X0Y697500D02*
X-200000Y697500D01*
X-200000Y-242500D01*
X0Y-242500D01*
X0Y697500D01*
G36*
X-175000Y0D02*
X722500Y0D01*
X722500Y-212500D01*
X-175000Y-212500D01*
X-175000Y0D01*
G37*
G54D24*
X-175000Y0D02*
X722500Y0D01*
X722500Y-212500D01*
X-175000Y-212500D01*
X-175000Y0D01*
G36*
X465000Y502500D02*
X465000Y487500D01*
X487500Y465000D01*
X502500Y465000D01*
X502500Y497500D01*
X500000Y500000D01*
X465000Y502500D01*
G37*
G54D24*
X465000Y502500D02*
X465000Y487500D01*
X487500Y465000D01*
X502500Y465000D01*
X502500Y497500D01*
X500000Y500000D01*
X465000Y502500D01*
G36*
X37500Y505000D02*
X37500Y490000D01*
X12500Y465000D01*
X-12500Y465000D01*
X-12500Y492500D01*
X2500Y507500D01*
X37500Y505000D01*
G37*
G54D24*
X37500Y505000D02*
X37500Y490000D01*
X12500Y465000D01*
X-12500Y465000D01*
X-12500Y492500D01*
X2500Y507500D01*
X37500Y505000D01*
G54D18*
X288700Y88800D02*
X289900Y90000D01*
X315000Y90000D01*
X332500Y107500D01*
X332500Y140000D01*
X340000Y147500D01*
X360000Y147500D01*
X382463Y169963D01*
X262500Y132500D02*
G54D17*
D03*
%LPD*%
G54D24*
G36*
X240778Y460000D02*
X240778Y448500D01*
X234778Y448500D01*
X234778Y460000D01*
X240778Y460000D01*
G37*
G36*
X237778Y457000D02*
X226278Y457000D01*
X226278Y463000D01*
X237778Y463000D01*
X237778Y457000D01*
G37*
G36*
X234778Y460000D02*
X234778Y471500D01*
X240778Y471500D01*
X240778Y460000D01*
X234778Y460000D01*
G37*
G36*
X237778Y463000D02*
X249278Y463000D01*
X249278Y457000D01*
X237778Y457000D01*
X237778Y463000D01*
G37*
G54D25*
G36*
X209833Y88800D02*
X209833Y99300D01*
X215167Y99300D01*
X215167Y88800D01*
X209833Y88800D01*
G37*
G36*
X212500Y91467D02*
X223000Y91467D01*
X223000Y86133D01*
X212500Y86133D01*
X212500Y91467D01*
G37*
G36*
X212500Y86133D02*
X202000Y86133D01*
X202000Y91467D01*
X212500Y91467D01*
X212500Y86133D01*
G37*
G54D25*
G36*
X209833Y256700D02*
X209833Y267200D01*
X215167Y267200D01*
X215167Y256700D01*
X209833Y256700D01*
G37*
G36*
X212500Y259367D02*
X223000Y259367D01*
X223000Y254033D01*
X212500Y254033D01*
X212500Y259367D01*
G37*
G36*
X215167Y256700D02*
X215167Y246200D01*
X209833Y246200D01*
X209833Y256700D01*
X215167Y256700D01*
G37*
G36*
X212500Y254033D02*
X202000Y254033D01*
X202000Y259367D01*
X212500Y259367D01*
X212500Y254033D01*
G37*
G54D25*
G36*
X286033Y256700D02*
X286033Y267200D01*
X291367Y267200D01*
X291367Y256700D01*
X286033Y256700D01*
G37*
G36*
X288700Y259367D02*
X299200Y259367D01*
X299200Y254033D01*
X288700Y254033D01*
X288700Y259367D01*
G37*
G36*
X291367Y256700D02*
X291367Y246200D01*
X286033Y246200D01*
X286033Y256700D01*
X291367Y256700D01*
G37*
G36*
X288700Y254033D02*
X278200Y254033D01*
X278200Y259367D01*
X288700Y259367D01*
X288700Y254033D01*
G37*
G54D25*
G36*
X209833Y348800D02*
X209833Y359300D01*
X215167Y359300D01*
X215167Y348800D01*
X209833Y348800D01*
G37*
G36*
X212500Y351467D02*
X223000Y351467D01*
X223000Y346133D01*
X212500Y346133D01*
X212500Y351467D01*
G37*
G36*
X215167Y348800D02*
X215167Y338300D01*
X209833Y338300D01*
X209833Y348800D01*
X215167Y348800D01*
G37*
G36*
X212500Y346133D02*
X202000Y346133D01*
X202000Y351467D01*
X212500Y351467D01*
X212500Y346133D01*
G37*
G54D26*
G36*
X13667Y17500D02*
X13667Y31500D01*
X21333Y31500D01*
X21333Y17500D01*
X13667Y17500D01*
G37*
G36*
X17500Y21333D02*
X31500Y21333D01*
X31500Y13667D01*
X17500Y13667D01*
X17500Y21333D01*
G37*
G54D27*
G36*
X20667Y47500D02*
X20667Y35500D01*
X14333Y35500D01*
X14333Y47500D01*
X20667Y47500D01*
G37*
G36*
X17500Y44333D02*
X5500Y44333D01*
X5500Y50667D01*
X17500Y50667D01*
X17500Y44333D01*
G37*
G36*
X14333Y47500D02*
X14333Y59500D01*
X20667Y59500D01*
X20667Y47500D01*
X14333Y47500D01*
G37*
G36*
X17500Y50667D02*
X29500Y50667D01*
X29500Y44333D01*
X17500Y44333D01*
X17500Y50667D01*
G37*
G54D26*
G36*
X168667Y17500D02*
X168667Y31500D01*
X176333Y31500D01*
X176333Y17500D01*
X168667Y17500D01*
G37*
G36*
X172500Y21333D02*
X186500Y21333D01*
X186500Y13667D01*
X172500Y13667D01*
X172500Y21333D01*
G37*
G36*
X176333Y17500D02*
X176333Y3500D01*
X168667Y3500D01*
X168667Y17500D01*
X176333Y17500D01*
G37*
G36*
X172500Y13667D02*
X158500Y13667D01*
X158500Y21333D01*
X172500Y21333D01*
X172500Y13667D01*
G37*
G54D25*
G36*
X234570Y197300D02*
X234570Y207800D01*
X239904Y207800D01*
X239904Y197300D01*
X234570Y197300D01*
G37*
G36*
X237237Y199967D02*
X247737Y199967D01*
X247737Y194633D01*
X237237Y194633D01*
X237237Y199967D01*
G37*
G36*
X239904Y197300D02*
X239904Y186800D01*
X234570Y186800D01*
X234570Y197300D01*
X239904Y197300D01*
G37*
G36*
X237237Y194633D02*
X226737Y194633D01*
X226737Y199967D01*
X237237Y199967D01*
X237237Y194633D01*
G37*
G54D25*
G36*
X118150Y18821D02*
X107650Y18821D01*
X107650Y24155D01*
X118150Y24155D01*
X118150Y18821D01*
G37*
G36*
X118150Y24155D02*
X128650Y24155D01*
X128650Y18821D01*
X118150Y18821D01*
X118150Y24155D01*
G37*
G36*
X120817Y21488D02*
X120817Y10988D01*
X115483Y10988D01*
X115483Y21488D01*
X120817Y21488D01*
G37*
G54D25*
G36*
X19367Y75000D02*
X19367Y64500D01*
X14033Y64500D01*
X14033Y75000D01*
X19367Y75000D01*
G37*
G36*
X16700Y72333D02*
X6200Y72333D01*
X6200Y77667D01*
X16700Y77667D01*
X16700Y72333D01*
G37*
G36*
X14033Y75000D02*
X14033Y85500D01*
X19367Y85500D01*
X19367Y75000D01*
X14033Y75000D01*
G37*
G36*
X16700Y77667D02*
X27200Y77667D01*
X27200Y72333D01*
X16700Y72333D01*
X16700Y77667D01*
G37*
G54D25*
G36*
X322170Y14513D02*
X311670Y14513D01*
X311670Y19847D01*
X322170Y19847D01*
X322170Y14513D01*
G37*
G36*
X319503Y17180D02*
X319503Y27680D01*
X324837Y27680D01*
X324837Y17180D01*
X319503Y17180D01*
G37*
G36*
X322170Y19847D02*
X332670Y19847D01*
X332670Y14513D01*
X322170Y14513D01*
X322170Y19847D01*
G37*
G36*
X324837Y17180D02*
X324837Y6680D01*
X319503Y6680D01*
X319503Y17180D01*
X324837Y17180D01*
G37*
G54D25*
G36*
X407170Y14513D02*
X396670Y14513D01*
X396670Y19847D01*
X407170Y19847D01*
X407170Y14513D01*
G37*
G36*
X404503Y17180D02*
X404503Y27680D01*
X409837Y27680D01*
X409837Y17180D01*
X404503Y17180D01*
G37*
G36*
X407170Y19847D02*
X417670Y19847D01*
X417670Y14513D01*
X407170Y14513D01*
X407170Y19847D01*
G37*
G36*
X409837Y17180D02*
X409837Y6680D01*
X404503Y6680D01*
X404503Y17180D01*
X409837Y17180D01*
G37*
G54D25*
G36*
X135650Y278821D02*
X125150Y278821D01*
X125150Y284155D01*
X135650Y284155D01*
X135650Y278821D01*
G37*
G36*
X132983Y281488D02*
X132983Y291988D01*
X138317Y291988D01*
X138317Y281488D01*
X132983Y281488D01*
G37*
G36*
X135650Y284155D02*
X146150Y284155D01*
X146150Y278821D01*
X135650Y278821D01*
X135650Y284155D01*
G37*
G36*
X138317Y281488D02*
X138317Y270988D01*
X132983Y270988D01*
X132983Y281488D01*
X138317Y281488D01*
G37*
G54D25*
G36*
X187638Y259568D02*
X198138Y259568D01*
X198138Y254234D01*
X187638Y254234D01*
X187638Y259568D01*
G37*
G36*
X190305Y256901D02*
X190305Y246401D01*
X184971Y246401D01*
X184971Y256901D01*
X190305Y256901D01*
G37*
G36*
X187638Y254234D02*
X177138Y254234D01*
X177138Y259568D01*
X187638Y259568D01*
X187638Y254234D01*
G37*
G36*
X184971Y256901D02*
X184971Y267401D01*
X190305Y267401D01*
X190305Y256901D01*
X184971Y256901D01*
G37*
G54D25*
G36*
X481262Y118842D02*
X481262Y108342D01*
X475928Y108342D01*
X475928Y118842D01*
X481262Y118842D01*
G37*
G36*
X475928Y118842D02*
X475928Y129342D01*
X481262Y129342D01*
X481262Y118842D01*
X475928Y118842D01*
G37*
G36*
X478595Y121509D02*
X489095Y121509D01*
X489095Y116175D01*
X478595Y116175D01*
X478595Y121509D01*
G37*
G54D25*
G36*
X21245Y215574D02*
X21245Y226074D01*
X26579Y226074D01*
X26579Y215574D01*
X21245Y215574D01*
G37*
G36*
X26579Y215574D02*
X26579Y205074D01*
X21245Y205074D01*
X21245Y215574D01*
X26579Y215574D01*
G37*
G36*
X23912Y212907D02*
X13412Y212907D01*
X13412Y218241D01*
X23912Y218241D01*
X23912Y212907D01*
G37*
G54D25*
G36*
X21245Y123075D02*
X21245Y133575D01*
X26579Y133575D01*
X26579Y123075D01*
X21245Y123075D01*
G37*
G36*
X26579Y123075D02*
X26579Y112575D01*
X21245Y112575D01*
X21245Y123075D01*
X26579Y123075D01*
G37*
G36*
X23912Y120408D02*
X13412Y120408D01*
X13412Y125742D01*
X23912Y125742D01*
X23912Y120408D01*
G37*
G54D25*
G36*
X315138Y377068D02*
X325638Y377068D01*
X325638Y371734D01*
X315138Y371734D01*
X315138Y377068D01*
G37*
G36*
X317805Y374401D02*
X317805Y363901D01*
X312471Y363901D01*
X312471Y374401D01*
X317805Y374401D01*
G37*
G36*
X315138Y371734D02*
X304638Y371734D01*
X304638Y377068D01*
X315138Y377068D01*
X315138Y371734D01*
G37*
G36*
X312471Y374401D02*
X312471Y384901D01*
X317805Y384901D01*
X317805Y374401D01*
X312471Y374401D01*
G37*
G54D25*
G36*
X457500Y334208D02*
X447000Y334208D01*
X447000Y339542D01*
X457500Y339542D01*
X457500Y334208D01*
G37*
G36*
X454833Y336875D02*
X454833Y347375D01*
X460167Y347375D01*
X460167Y336875D01*
X454833Y336875D01*
G37*
G36*
X457500Y339542D02*
X468000Y339542D01*
X468000Y334208D01*
X457500Y334208D01*
X457500Y339542D01*
G37*
G36*
X460167Y336875D02*
X460167Y326375D01*
X454833Y326375D01*
X454833Y336875D01*
X460167Y336875D01*
G37*
G54D25*
G36*
X375350Y342738D02*
X375350Y332238D01*
X370016Y332238D01*
X370016Y342738D01*
X375350Y342738D01*
G37*
G36*
X370016Y342738D02*
X370016Y353238D01*
X375350Y353238D01*
X375350Y342738D01*
X370016Y342738D01*
G37*
G36*
X372683Y345405D02*
X383183Y345405D01*
X383183Y340071D01*
X372683Y340071D01*
X372683Y345405D01*
G37*
G54D25*
G36*
X482850Y425238D02*
X482850Y414738D01*
X477516Y414738D01*
X477516Y425238D01*
X482850Y425238D01*
G37*
G36*
X477516Y425238D02*
X477516Y435738D01*
X482850Y435738D01*
X482850Y425238D01*
X477516Y425238D01*
G37*
G36*
X480183Y427905D02*
X490683Y427905D01*
X490683Y422571D01*
X480183Y422571D01*
X480183Y427905D01*
G37*
G54D26*
G36*
X478667Y197500D02*
X478667Y211500D01*
X486333Y211500D01*
X486333Y197500D01*
X478667Y197500D01*
G37*
G36*
X482500Y201333D02*
X496500Y201333D01*
X496500Y193667D01*
X482500Y193667D01*
X482500Y201333D01*
G37*
G36*
X486333Y197500D02*
X486333Y183500D01*
X478667Y183500D01*
X478667Y197500D01*
X486333Y197500D01*
G37*
G36*
X482500Y193667D02*
X468500Y193667D01*
X468500Y201333D01*
X482500Y201333D01*
X482500Y193667D01*
G37*
G54D26*
G36*
X478667Y160000D02*
X478667Y174000D01*
X486333Y174000D01*
X486333Y160000D01*
X478667Y160000D01*
G37*
G36*
X482500Y163833D02*
X496500Y163833D01*
X496500Y156167D01*
X482500Y156167D01*
X482500Y163833D01*
G37*
G36*
X486333Y160000D02*
X486333Y146000D01*
X478667Y146000D01*
X478667Y160000D01*
X486333Y160000D01*
G37*
G36*
X482500Y156167D02*
X468500Y156167D01*
X468500Y163833D01*
X482500Y163833D01*
X482500Y156167D01*
G37*
X451000Y470000D02*
G54D28*
D03*
X400200Y470000D02*
G54D28*
D03*
X349400Y470000D02*
G54D28*
D03*
X150962Y470000D02*
G54D28*
D03*
X100162Y470000D02*
G54D28*
D03*
X49362Y470000D02*
G54D28*
D03*
X451000Y169962D02*
G54D28*
D03*
X400200Y169963D02*
G54D28*
D03*
X349400Y169962D02*
G54D28*
D03*
X150962Y169962D02*
G54D28*
D03*
X100162Y169963D02*
G54D28*
D03*
X49362Y169962D02*
G54D28*
D03*
X237281Y40050D02*
G54D29*
D03*
G36*
X271681Y31050D02*
X253681Y31050D01*
X253681Y49050D01*
X271681Y49050D01*
X271681Y31050D01*
G37*
X237778Y460000D02*
G54D29*
D03*
G36*
X272178Y451000D02*
X254178Y451000D01*
X254178Y469000D01*
X272178Y469000D01*
X272178Y451000D01*
G37*
G36*
X204500Y173000D02*
X220500Y173000D01*
X220500Y157000D01*
X204500Y157000D01*
X204500Y173000D01*
G37*
X212500Y139600D02*
G54D30*
D03*
X212500Y114200D02*
G54D30*
D03*
X212500Y88800D02*
G54D30*
D03*
X288700Y165000D02*
G54D30*
D03*
X288700Y139600D02*
G54D30*
D03*
X288700Y114200D02*
G54D30*
D03*
X288700Y88800D02*
G54D30*
D03*
X187638Y114400D02*
G54D30*
D03*
X187638Y165200D02*
G54D30*
D03*
G36*
X204500Y315500D02*
X220500Y315500D01*
X220500Y299500D01*
X204500Y299500D01*
X204500Y315500D01*
G37*
X212500Y282100D02*
G54D30*
D03*
X212500Y256700D02*
G54D30*
D03*
X212500Y231300D02*
G54D30*
D03*
X288700Y307500D02*
G54D30*
D03*
X288700Y282100D02*
G54D30*
D03*
X288700Y256700D02*
G54D30*
D03*
X288700Y231300D02*
G54D30*
D03*
G36*
X204500Y433000D02*
X220500Y433000D01*
X220500Y417000D01*
X204500Y417000D01*
X204500Y433000D01*
G37*
X212500Y399600D02*
G54D30*
D03*
X212500Y374200D02*
G54D30*
D03*
X212500Y348800D02*
G54D30*
D03*
X288700Y425000D02*
G54D30*
D03*
X288700Y399600D02*
G54D30*
D03*
X288700Y374200D02*
G54D30*
D03*
X288700Y348800D02*
G54D30*
D03*
X17500Y17500D02*
G54D31*
D03*
G36*
X36000Y29000D02*
X59000Y29000D01*
X59000Y6000D01*
X36000Y6000D01*
X36000Y29000D01*
G37*
X68300Y47500D02*
G54D32*
D03*
X17500Y47500D02*
G54D32*
D03*
X172500Y17500D02*
G54D31*
D03*
G36*
X191000Y29000D02*
X214000Y29000D01*
X214000Y6000D01*
X191000Y6000D01*
X191000Y29000D01*
G37*
X217842Y61518D02*
G54D30*
D03*
X167042Y61518D02*
G54D30*
D03*
X150342Y144018D02*
G54D30*
D03*
X99542Y144018D02*
G54D30*
D03*
X150342Y119018D02*
G54D30*
D03*
X99542Y119018D02*
G54D30*
D03*
X237237Y197300D02*
G54D30*
D03*
X288038Y197300D02*
G54D30*
D03*
X349738Y97300D02*
G54D30*
D03*
X400538Y97300D02*
G54D30*
D03*
X118150Y21488D02*
G54D30*
D03*
G36*
X110150Y38888D02*
X110150Y54888D01*
X126150Y54888D01*
X126150Y38888D01*
X110150Y38888D01*
G37*
G36*
X283500Y29000D02*
X306500Y29000D01*
X306500Y6000D01*
X283500Y6000D01*
X283500Y29000D01*
G37*
X317638Y114400D02*
G54D30*
D03*
X317638Y165200D02*
G54D30*
D03*
X67500Y75000D02*
G54D30*
D03*
X16700Y75000D02*
G54D30*
D03*
X120000Y95000D02*
G54D30*
D03*
X69200Y95000D02*
G54D30*
D03*
X349670Y17180D02*
G54D30*
D03*
X349670Y67980D02*
G54D30*
D03*
X322170Y17180D02*
G54D30*
D03*
X322170Y67980D02*
G54D30*
D03*
X377170Y17180D02*
G54D30*
D03*
X377170Y67980D02*
G54D30*
D03*
X400000Y125000D02*
G54D30*
D03*
X349200Y125000D02*
G54D30*
D03*
G36*
X443500Y29000D02*
X466500Y29000D01*
X466500Y6000D01*
X443500Y6000D01*
X443500Y29000D01*
G37*
X407170Y17180D02*
G54D30*
D03*
X407170Y67980D02*
G54D30*
D03*
X432170Y17180D02*
G54D30*
D03*
X432170Y67980D02*
G54D30*
D03*
G54D24*
X288038Y197300D02*
X267300Y197300D01*
X245000Y175000D01*
X245000Y87500D01*
X232500Y75000D01*
X127500Y75000D01*
X117500Y65000D01*
X117500Y47538D01*
X118150Y46888D01*
G54D23*
X400200Y169963D02*
X382463Y169963D01*
X297500Y55000D02*
G54D33*
D03*
G54D34*
X297500Y55000D02*
X315000Y37500D01*
X345000Y37500D01*
X350000Y32500D01*
X350000Y17510D01*
X349670Y17180D01*
X135650Y281488D02*
G54D30*
D03*
G36*
X127650Y298888D02*
X127650Y314888D01*
X143650Y314888D01*
X143650Y298888D01*
X127650Y298888D01*
G37*
X187638Y307701D02*
G54D30*
D03*
X187638Y256901D02*
G54D30*
D03*
X185400Y214638D02*
G54D30*
D03*
X135400Y214638D02*
G54D30*
D03*
X482500Y280000D02*
G54D32*
D03*
X482500Y229200D02*
G54D32*
D03*
X478595Y118842D02*
G54D30*
D03*
G36*
X466595Y110842D02*
X450595Y110842D01*
X450595Y126842D01*
X466595Y126842D01*
X466595Y110842D01*
G37*
X470726Y57137D02*
G54D30*
D03*
G36*
X462726Y69137D02*
X462726Y85137D01*
X478726Y85137D01*
X478726Y69137D01*
X462726Y69137D01*
G37*
X23912Y215574D02*
G54D30*
D03*
G36*
X35912Y223574D02*
X51912Y223574D01*
X51912Y207574D01*
X35912Y207574D01*
X35912Y223574D01*
G37*
X23912Y123075D02*
G54D30*
D03*
G36*
X35912Y131074D02*
X51912Y131074D01*
X51912Y115074D01*
X35912Y115074D01*
X35912Y131074D01*
G37*
G54D24*
X135650Y306888D02*
X135650Y306850D01*
X152500Y290000D01*
X152500Y270000D01*
X140000Y257500D01*
X102500Y257500D01*
X75000Y230000D01*
X75000Y122500D01*
X100000Y97500D01*
X100000Y82500D01*
X117500Y65000D01*
X328170Y235387D02*
G54D30*
D03*
G36*
X336170Y223387D02*
X336170Y207387D01*
X320170Y207387D01*
X320170Y223387D01*
X336170Y223387D01*
G37*
G54D24*
X212500Y307500D02*
X235000Y307500D01*
X250000Y322500D01*
X250000Y415000D01*
X260000Y425000D01*
X288700Y425000D01*
X315138Y425201D02*
G54D30*
D03*
X315138Y374401D02*
G54D30*
D03*
X323225Y287464D02*
G54D30*
D03*
G36*
X315225Y299464D02*
X315225Y315464D01*
X331225Y315464D01*
X331225Y299464D01*
X315225Y299464D01*
G37*
X404680Y405331D02*
G54D30*
D03*
X404680Y354531D02*
G54D30*
D03*
X450000Y280000D02*
G54D32*
D03*
X450000Y229200D02*
G54D32*
D03*
X432500Y387325D02*
G54D30*
D03*
X432500Y336525D02*
G54D30*
D03*
X457500Y336875D02*
G54D30*
D03*
X457500Y387675D02*
G54D30*
D03*
X344680Y425331D02*
G54D30*
D03*
X344680Y374531D02*
G54D30*
D03*
X315000Y482500D02*
G54D30*
D03*
X264200Y482500D02*
G54D30*
D03*
X372683Y342738D02*
G54D30*
D03*
G36*
X360683Y334738D02*
X344683Y334738D01*
X344683Y350738D01*
X360683Y350738D01*
X360683Y334738D01*
G37*
X415000Y265000D02*
G54D30*
D03*
X364200Y265000D02*
G54D30*
D03*
X415000Y237500D02*
G54D30*
D03*
X364200Y237500D02*
G54D30*
D03*
X415000Y292500D02*
G54D30*
D03*
X364200Y292500D02*
G54D30*
D03*
X445000Y317500D02*
G54D30*
D03*
X394200Y317500D02*
G54D30*
D03*
X482170Y299680D02*
G54D30*
D03*
X482170Y350480D02*
G54D30*
D03*
X480183Y425238D02*
G54D30*
D03*
G36*
X468183Y417238D02*
X452183Y417238D01*
X452183Y433238D01*
X468183Y433238D01*
X468183Y417238D01*
G37*
X445000Y405000D02*
G54D33*
D03*
G54D23*
X451000Y470000D02*
X451000Y451000D01*
X445000Y445000D01*
X445000Y405000D01*
X172900Y374638D02*
G54D30*
D03*
X172900Y424637D02*
G54D30*
D03*
X377180Y425331D02*
G54D30*
D03*
X377180Y374531D02*
G54D30*
D03*
G54D34*
X315000Y482500D02*
X315000Y455011D01*
X344680Y425331D01*
X262500Y362500D02*
G54D33*
D03*
G54D34*
X262500Y362500D02*
X262500Y315000D01*
X232500Y285000D01*
X232500Y251300D01*
X212500Y231300D01*
X191200Y344638D02*
G54D30*
D03*
X140400Y344638D02*
G54D30*
D03*
X290000Y452500D02*
G54D33*
D03*
G54D34*
X290000Y452500D02*
X287500Y452500D01*
X272500Y437500D01*
X247500Y437500D01*
X232500Y422500D01*
X232500Y340000D01*
X222500Y330000D01*
X205837Y330000D01*
X191200Y344638D01*
X101200Y439637D02*
G54D30*
D03*
X50400Y439637D02*
G54D30*
D03*
G54D24*
X117500Y70000D02*
X117500Y47538D01*
X118150Y46888D01*
G54D24*
X112500Y70000D02*
X122500Y70000D01*
G54D23*
X349400Y169962D02*
X339363Y180000D01*
X272500Y180000D01*
X262500Y170000D01*
X262500Y87500D01*
X220000Y45000D01*
X142500Y45000D01*
X131500Y34000D01*
G54D23*
X131500Y34000D02*
X106000Y34000D01*
X100000Y40000D01*
X100000Y70000D01*
X90000Y80000D01*
X90000Y95000D01*
X61926Y123074D01*
X43912Y123074D01*
X147500Y57500D02*
G54D33*
D03*
X192500Y62500D02*
G54D33*
D03*
X425000Y82500D02*
G54D33*
D03*
X425215Y189950D02*
G54D30*
D03*
G36*
X417215Y201950D02*
X417215Y217950D01*
X433215Y217950D01*
X433215Y201950D01*
X417215Y201950D01*
G37*
X442500Y145000D02*
G54D30*
D03*
X391700Y145000D02*
G54D30*
D03*
G54D23*
X377170Y67980D02*
X375480Y67980D01*
X360000Y52500D01*
X317500Y52500D01*
X302500Y67500D01*
X282500Y67500D01*
X262500Y87500D01*
G54D34*
X352683Y342738D02*
X352683Y329817D01*
X357500Y325000D01*
X380000Y325000D01*
X392500Y337500D01*
X431525Y337500D01*
X432500Y336525D01*
G54D34*
X288700Y348800D02*
X313700Y348800D01*
X320000Y342500D01*
X352445Y342500D01*
X352683Y342738D01*
G54D23*
X257500Y82500D02*
X267500Y82500D01*
G54D35*
X391700Y145000D02*
X377500Y145000D01*
X372500Y140000D01*
X372500Y130000D01*
X367500Y125000D01*
X349200Y125000D01*
X482500Y197500D02*
G54D31*
D03*
X482500Y160000D02*
G54D31*
D03*
G36*
X61000Y22273D02*
X67727Y29000D01*
X77273Y29000D01*
X84000Y22273D01*
X84000Y12727D01*
X77273Y6000D01*
X67727Y6000D01*
X61000Y12727D01*
X61000Y22273D01*
G37*
G54D34*
X288700Y88800D02*
X289900Y90000D01*
X315000Y90000D01*
X332500Y107500D01*
X332500Y140000D01*
X340000Y147500D01*
X360000Y147500D01*
X382463Y169963D01*
X262500Y132500D02*
G54D33*
D03*
M02*
