%FSLAX34Y34*%
%MOMM*%
%LNSILK_BOTTOM*%
G71*
G01*
%ADD10C, 0.260*%
%ADD11C, 0.206*%
%LPD*%
G54D10*
G75*
G01X260612Y51791D02*
G03X239401Y51791I-10606J-11779D01*
G01*
G54D10*
G75*
G01X238576Y28324D02*
G03X259787Y28324I10605J11779D01*
G01*
G54D10*
G75*
G01X261108Y471741D02*
G03X239897Y471741I-10605J-11779D01*
G01*
G54D10*
G75*
G01X239072Y448274D02*
G03X260283Y448274I10606J11779D01*
G01*
G54D11*
X140892Y190414D02*
X140892Y201970D01*
G54D11*
X136848Y190414D02*
X136848Y201970D01*
X129915Y190414D01*
X129915Y201970D01*
G54D11*
X125871Y190414D02*
X125871Y201970D01*
X121538Y201970D01*
X119804Y201247D01*
X118938Y199803D01*
X118938Y198358D01*
X119804Y196914D01*
X121538Y196192D01*
X125871Y196192D01*
G54D11*
X114894Y201970D02*
X114894Y192581D01*
X114027Y191136D01*
X112294Y190414D01*
X110561Y190414D01*
X108827Y191136D01*
X107961Y192581D01*
X107961Y201970D01*
G54D11*
X100450Y190414D02*
X100450Y201970D01*
G54D11*
X103917Y201970D02*
X96984Y201970D01*
G54D11*
X85256Y196192D02*
X81790Y196192D01*
X81790Y192581D01*
X82656Y191136D01*
X84390Y190414D01*
X86123Y190414D01*
X87856Y191136D01*
X88723Y192581D01*
X88723Y199803D01*
X87856Y201247D01*
X86123Y201970D01*
X84390Y201970D01*
X82656Y201247D01*
X81790Y199803D01*
G54D11*
X77746Y190414D02*
X73413Y201970D01*
X69079Y190414D01*
G54D11*
X76013Y194747D02*
X70813Y194747D01*
G54D11*
X65035Y190414D02*
X65035Y201970D01*
G54D11*
X60991Y190414D02*
X60991Y201970D01*
X54058Y190414D01*
X54058Y201970D01*
G54D11*
X406043Y200145D02*
X406043Y188589D01*
X399976Y188589D01*
G54D11*
X389865Y188589D02*
X395932Y188589D01*
X395932Y200145D01*
X389865Y200145D01*
G54D11*
X395932Y194367D02*
X389865Y194367D01*
G54D11*
X385821Y200145D02*
X381488Y188589D01*
X377154Y200145D01*
G54D11*
X367043Y188589D02*
X373110Y188589D01*
X373110Y200145D01*
X367043Y200145D01*
G54D11*
X373110Y194367D02*
X367043Y194367D01*
G54D11*
X362999Y200145D02*
X362999Y188589D01*
X356932Y188589D01*
G54D11*
X431694Y437039D02*
X427361Y448595D01*
X423027Y437039D01*
G54D11*
X429961Y441372D02*
X424761Y441372D01*
G54D11*
X415516Y437039D02*
X415516Y448595D01*
G54D11*
X418983Y448595D02*
X412050Y448595D01*
G54D11*
X404539Y437039D02*
X404539Y448595D01*
G54D11*
X408006Y448595D02*
X401073Y448595D01*
G54D11*
X397029Y437039D02*
X392696Y448595D01*
X388362Y437039D01*
G54D11*
X395296Y441372D02*
X390096Y441372D01*
G54D11*
X377385Y439206D02*
X378251Y437761D01*
X379985Y437039D01*
X381718Y437039D01*
X383451Y437761D01*
X384318Y439206D01*
X384318Y446428D01*
X383451Y447872D01*
X381718Y448595D01*
X379985Y448595D01*
X378251Y447872D01*
X377385Y446428D01*
G54D11*
X373341Y437039D02*
X373341Y448595D01*
G54D11*
X373341Y440650D02*
X366408Y448595D01*
G54D11*
X370741Y442817D02*
X366408Y437039D01*
G54D11*
X155052Y439467D02*
X155918Y438022D01*
X157652Y437300D01*
X159385Y437300D01*
X161118Y438022D01*
X161985Y439467D01*
X161985Y446689D01*
X161118Y448133D01*
X159385Y448856D01*
X157652Y448856D01*
X155918Y448133D01*
X155052Y446689D01*
G54D11*
X144075Y446689D02*
X144075Y439467D01*
X144941Y438022D01*
X146675Y437300D01*
X148408Y437300D01*
X150141Y438022D01*
X151008Y439467D01*
X151008Y446689D01*
X150141Y448133D01*
X148408Y448856D01*
X146675Y448856D01*
X144941Y448133D01*
X144075Y446689D01*
G54D11*
X140031Y437300D02*
X140031Y448856D01*
X135698Y441633D01*
X131364Y448856D01*
X131364Y437300D01*
G54D11*
X127320Y437300D02*
X127320Y448856D01*
X122987Y448856D01*
X121253Y448133D01*
X120387Y446689D01*
X120387Y445244D01*
X121253Y443800D01*
X122987Y443078D01*
X127320Y443078D01*
G54D10*
X32500Y187500D02*
X167500Y187500D01*
X167500Y155000D01*
X32500Y155000D01*
X32500Y187500D01*
G54D10*
X438250Y186000D02*
X468250Y186000D01*
X468250Y153500D01*
X454358Y153394D01*
G54D10*
X410750Y186000D02*
X341000Y186000D01*
G54D10*
X333250Y186000D02*
X341000Y186000D01*
G54D10*
X42500Y486250D02*
X167500Y486250D01*
X167500Y453750D01*
X32500Y453750D01*
X32500Y466250D01*
G54D10*
X332500Y486250D02*
X457500Y486250D01*
G54D10*
X332500Y486250D02*
X332500Y453750D01*
X467500Y453750D01*
X467500Y466250D01*
G54D11*
X265667Y438567D02*
X267400Y439000D01*
X269133Y438567D01*
X270000Y437122D01*
X270000Y434233D01*
X269133Y432789D01*
X267400Y432500D01*
X265667Y432789D01*
G54D11*
X256423Y434233D02*
X256423Y437122D01*
X257290Y438567D01*
X259023Y439000D01*
X260756Y438567D01*
X261623Y437122D01*
X261623Y434233D01*
X260756Y432789D01*
X259023Y432500D01*
X257290Y432789D01*
X256423Y434233D01*
G54D11*
X252379Y432500D02*
X252379Y439000D01*
G54D11*
X252379Y437844D02*
X250646Y439000D01*
X248912Y438567D01*
X248046Y437556D01*
X248046Y432500D01*
G54D11*
X248046Y437844D02*
X246312Y439000D01*
X244579Y438567D01*
X243712Y437556D01*
X243712Y432500D01*
G54D11*
X239668Y439000D02*
X239668Y429611D01*
G54D11*
X239668Y434667D02*
X238801Y432789D01*
X237068Y432500D01*
X235335Y432789D01*
X234468Y434233D01*
X234468Y437122D01*
X235335Y438567D01*
X237068Y439000D01*
X238801Y438567D01*
X239668Y436833D01*
G54D11*
X260000Y417500D02*
X260000Y429056D01*
G54D11*
X250756Y418222D02*
X252143Y417500D01*
X253876Y417500D01*
X255609Y418222D01*
X255956Y419667D01*
X255956Y422122D01*
X255089Y423567D01*
X253356Y424000D01*
X251623Y423567D01*
X250756Y422556D01*
X250756Y421111D01*
X255956Y421111D01*
G54D11*
X241512Y417500D02*
X241512Y429056D01*
G54D11*
X241512Y422122D02*
X242379Y423567D01*
X244112Y424000D01*
X245845Y423567D01*
X246712Y422122D01*
X246712Y419233D01*
X245845Y417789D01*
X244112Y417500D01*
X242379Y417789D01*
X241512Y419233D01*
G54D11*
X279800Y71733D02*
X279800Y74622D01*
X280667Y76067D01*
X282400Y76500D01*
X284133Y76067D01*
X285000Y74622D01*
X285000Y71733D01*
X284133Y70289D01*
X282400Y70000D01*
X280667Y70289D01*
X279800Y71733D01*
G54D11*
X275756Y70000D02*
X275756Y76500D01*
G54D11*
X275756Y75056D02*
X274889Y76067D01*
X273156Y76500D01*
X271423Y76067D01*
X270556Y75056D01*
X270556Y70000D01*
G54D11*
X266512Y70000D02*
X259579Y81556D01*
G54D11*
X250335Y71733D02*
X250335Y74622D01*
X251202Y76067D01*
X252935Y76500D01*
X254668Y76067D01*
X255535Y74622D01*
X255535Y71733D01*
X254668Y70289D01*
X252935Y70000D01*
X251202Y70289D01*
X250335Y71733D01*
G54D11*
X244558Y70000D02*
X244558Y80833D01*
X243691Y81556D01*
X242824Y81122D01*
G54D11*
X246291Y76500D02*
X242824Y76500D01*
G54D11*
X237047Y70000D02*
X237047Y80833D01*
X236180Y81556D01*
X235313Y81122D01*
G54D11*
X238780Y76500D02*
X235313Y76500D01*
G54D11*
X282500Y55000D02*
X282500Y66556D01*
G54D11*
X273256Y55722D02*
X274643Y55000D01*
X276376Y55000D01*
X278109Y55722D01*
X278456Y57167D01*
X278456Y59622D01*
X277589Y61067D01*
X275856Y61500D01*
X274123Y61067D01*
X273256Y60056D01*
X273256Y58611D01*
X278456Y58611D01*
G54D11*
X264012Y55000D02*
X264012Y66556D01*
G54D11*
X264012Y59622D02*
X264879Y61067D01*
X266612Y61500D01*
X268345Y61067D01*
X269212Y59622D01*
X269212Y56733D01*
X268345Y55289D01*
X266612Y55000D01*
X264879Y55289D01*
X264012Y56733D01*
G54D11*
X160962Y420947D02*
X160962Y432503D01*
X158073Y432503D01*
X156918Y431780D01*
X156340Y430336D01*
X156340Y428891D01*
X156918Y427447D01*
X158073Y426725D01*
X160962Y426725D01*
G54D11*
X147674Y430336D02*
X147674Y423114D01*
X148252Y421669D01*
X149407Y420947D01*
X150563Y420947D01*
X151718Y421669D01*
X152296Y423114D01*
X152296Y430336D01*
X151718Y431780D01*
X150563Y432503D01*
X149407Y432503D01*
X148252Y431780D01*
X147674Y430336D01*
G54D11*
X141319Y420947D02*
X141319Y432503D01*
G54D11*
X143630Y432503D02*
X139008Y432503D01*
G54D11*
X131497Y420947D02*
X131497Y432503D01*
X134964Y425280D01*
X134964Y423836D01*
X130342Y423836D01*
G54D11*
X431000Y420947D02*
X431000Y432503D01*
X428111Y432503D01*
X426956Y431780D01*
X426378Y430336D01*
X426378Y428891D01*
X426956Y427447D01*
X428111Y426725D01*
X431000Y426725D01*
G54D11*
X417712Y430336D02*
X417712Y423114D01*
X418290Y421669D01*
X419445Y420947D01*
X420601Y420947D01*
X421756Y421669D01*
X422334Y423114D01*
X422334Y430336D01*
X421756Y431780D01*
X420601Y432503D01*
X419445Y432503D01*
X418290Y431780D01*
X417712Y430336D01*
G54D11*
X411357Y420947D02*
X411357Y432503D01*
G54D11*
X413668Y432503D02*
X409046Y432503D01*
G54D11*
X405002Y428169D02*
X402113Y432503D01*
X402113Y420947D01*
G54D11*
X113462Y208410D02*
X113462Y219966D01*
X110573Y219966D01*
X109418Y219243D01*
X108840Y217799D01*
X108840Y216354D01*
X109418Y214910D01*
X110573Y214188D01*
X113462Y214188D01*
G54D11*
X100174Y217799D02*
X100174Y210577D01*
X100752Y209132D01*
X101907Y208410D01*
X103063Y208410D01*
X104218Y209132D01*
X104796Y210577D01*
X104796Y217799D01*
X104218Y219243D01*
X103063Y219966D01*
X101907Y219966D01*
X100752Y219243D01*
X100174Y217799D01*
G54D11*
X93819Y208410D02*
X93819Y219966D01*
G54D11*
X96130Y219966D02*
X91508Y219966D01*
G54D11*
X82842Y208410D02*
X87464Y208410D01*
X87464Y209132D01*
X86886Y210577D01*
X83420Y214910D01*
X82842Y216354D01*
X82842Y217799D01*
X83420Y219243D01*
X84575Y219966D01*
X85731Y219966D01*
X86886Y219243D01*
X87464Y217799D01*
G54D11*
X404800Y204744D02*
X404800Y216300D01*
X401911Y216300D01*
X400756Y215578D01*
X400178Y214133D01*
X400178Y212689D01*
X400756Y211244D01*
X401911Y210522D01*
X404800Y210522D01*
G54D11*
X391512Y214133D02*
X391512Y206911D01*
X392090Y205467D01*
X393245Y204744D01*
X394401Y204744D01*
X395556Y205467D01*
X396134Y206911D01*
X396134Y214133D01*
X395556Y215578D01*
X394401Y216300D01*
X393245Y216300D01*
X392090Y215578D01*
X391512Y214133D01*
G54D11*
X385157Y204744D02*
X385157Y216300D01*
G54D11*
X387468Y216300D02*
X382846Y216300D01*
G54D11*
X378802Y214133D02*
X378224Y215578D01*
X377069Y216300D01*
X375913Y216300D01*
X374758Y215578D01*
X374180Y214133D01*
X374180Y212689D01*
X374758Y211244D01*
X375913Y210522D01*
X374758Y209800D01*
X374180Y208356D01*
X374180Y206911D01*
X374758Y205467D01*
X375913Y204744D01*
X377069Y204744D01*
X378224Y205467D01*
X378802Y206911D01*
G54D11*
X256681Y8162D02*
X256681Y19718D01*
X253792Y19718D01*
X252637Y18995D01*
X252059Y17551D01*
X252059Y10329D01*
X252637Y8884D01*
X253792Y8162D01*
X256681Y8162D01*
G54D11*
X245126Y13940D02*
X246282Y13940D01*
X247437Y14662D01*
X248015Y16106D01*
X248015Y17551D01*
X247437Y18995D01*
X246282Y19718D01*
X245126Y19718D01*
X243971Y18995D01*
X243393Y17551D01*
X243393Y16106D01*
X243971Y14662D01*
X245126Y13940D01*
X243971Y13218D01*
X243393Y11773D01*
X243393Y10329D01*
X243971Y8884D01*
X245126Y8162D01*
X246282Y8162D01*
X247437Y8884D01*
X248015Y10329D01*
X248015Y11773D01*
X247437Y13218D01*
X246282Y13940D01*
G54D11*
X247178Y480612D02*
X247178Y492168D01*
X244289Y492168D01*
X243134Y491445D01*
X242556Y490001D01*
X242556Y482779D01*
X243134Y481334D01*
X244289Y480612D01*
X247178Y480612D01*
G54D11*
X238512Y492168D02*
X233890Y492168D01*
X234468Y490723D01*
X235623Y488556D01*
X236779Y485668D01*
X237356Y483501D01*
X237356Y480612D01*
G54D10*
X333250Y186000D02*
X333250Y153500D01*
X383532Y153578D01*
G54D10*
X404400Y153700D02*
X434175Y153578D01*
G54D11*
X26751Y235478D02*
X26029Y234322D01*
X24585Y233745D01*
X17362Y233745D01*
X15918Y234322D01*
X15196Y235478D01*
G54D11*
X21262Y242411D02*
X21696Y241255D01*
X21262Y240100D01*
X19818Y239522D01*
X16929Y239522D01*
X15485Y240100D01*
X15196Y241255D01*
X15485Y242411D01*
G54D11*
X26751Y246455D02*
X26029Y247610D01*
X24585Y248188D01*
X17362Y248188D01*
X15918Y247610D01*
X15196Y246455D01*
G54D11*
X15196Y261014D02*
X15196Y256392D01*
X15918Y256392D01*
X17362Y256970D01*
X21696Y260436D01*
X23140Y261014D01*
X24585Y261014D01*
X26029Y260436D01*
X26751Y259281D01*
X26751Y258125D01*
X26029Y256970D01*
X24585Y256392D01*
G54D11*
X24585Y269680D02*
X17362Y269680D01*
X15918Y269102D01*
X15196Y267947D01*
X15196Y266791D01*
X15918Y265636D01*
X17362Y265058D01*
X24585Y265058D01*
X26029Y265636D01*
X26751Y266791D01*
X26751Y267947D01*
X26029Y269102D01*
X24585Y269680D01*
G54D11*
X22418Y273724D02*
X26751Y276613D01*
X15196Y276613D01*
G54D11*
X15196Y284123D02*
X26751Y284123D01*
X19529Y280657D01*
X18085Y280657D01*
X18085Y285279D01*
G54D11*
X15196Y293483D02*
X26751Y293483D01*
X26751Y296372D01*
X26029Y297527D01*
X24585Y298105D01*
X23140Y298105D01*
X21696Y297527D01*
X20974Y296372D01*
X20974Y293483D01*
G54D11*
X15196Y302149D02*
X21696Y302149D01*
G54D11*
X23862Y302149D02*
X23862Y302149D01*
G54D11*
X16929Y309659D02*
X19818Y309659D01*
X21262Y309082D01*
X21696Y307926D01*
X21262Y306770D01*
X19818Y306193D01*
X16929Y306193D01*
X15485Y306770D01*
X15196Y307926D01*
X15485Y309082D01*
X16929Y309659D01*
G54D11*
X26751Y314859D02*
X15918Y314859D01*
X15196Y315437D01*
X15485Y316015D01*
G54D11*
X21696Y313704D02*
X21696Y316015D01*
G54D11*
X15196Y320059D02*
X21696Y320059D01*
G54D11*
X20251Y320059D02*
X21696Y321214D01*
X21696Y322370D01*
G54D11*
X26751Y330574D02*
X26751Y335196D01*
X15196Y330574D01*
X15196Y335196D01*
G54D11*
X20974Y339240D02*
X21696Y340395D01*
X21696Y341782D01*
X20251Y342706D01*
X15196Y342706D01*
G54D11*
X17362Y342706D02*
X18807Y342129D01*
X19096Y340973D01*
X18807Y339818D01*
X17362Y339240D01*
X15918Y339471D01*
X15196Y340395D01*
X15196Y340973D01*
X15196Y341204D01*
X15918Y342129D01*
X17362Y342706D01*
G54D11*
X21696Y346751D02*
X12307Y346751D01*
G54D11*
X17362Y346751D02*
X15485Y347328D01*
X15196Y348484D01*
X15485Y349640D01*
X16929Y350217D01*
X19818Y350217D01*
X21262Y349640D01*
X21696Y348484D01*
X21262Y347328D01*
X19529Y346751D01*
G54D11*
X20974Y354262D02*
X21696Y355417D01*
X21696Y356804D01*
X20251Y357728D01*
X15196Y357728D01*
G54D11*
X17362Y357728D02*
X18807Y357151D01*
X19096Y355995D01*
X18807Y354840D01*
X17362Y354262D01*
X15918Y354493D01*
X15196Y355417D01*
X15196Y355995D01*
X15196Y356226D01*
X15918Y357151D01*
X17362Y357728D01*
G54D11*
X15196Y361773D02*
X21696Y361773D01*
G54D11*
X20251Y361773D02*
X21696Y362928D01*
X21696Y364084D01*
G54D11*
X26751Y369283D02*
X15918Y369283D01*
X15196Y369861D01*
X15485Y370439D01*
G54D11*
X21696Y368128D02*
X21696Y370439D01*
G54D11*
X32696Y237211D02*
X44251Y237211D01*
G54D11*
X37318Y237211D02*
X38762Y236634D01*
X39196Y235478D01*
X38762Y234322D01*
X37318Y233745D01*
X34429Y233745D01*
X32985Y234322D01*
X32696Y235478D01*
X32985Y236634D01*
X34429Y237211D01*
G54D11*
X33418Y244722D02*
X32696Y243798D01*
X32696Y242642D01*
X33418Y241487D01*
X34862Y241256D01*
X37318Y241256D01*
X38762Y241834D01*
X39196Y242989D01*
X38762Y244145D01*
X37751Y244722D01*
X36307Y244722D01*
X36307Y241256D01*
G54D11*
X33418Y248767D02*
X32696Y249922D01*
X32696Y251078D01*
X33418Y252233D01*
X34862Y252233D01*
X35585Y251656D01*
X36307Y249344D01*
X37029Y248767D01*
X38474Y248767D01*
X39196Y249922D01*
X39196Y251078D01*
X38474Y252233D01*
G54D11*
X32696Y256278D02*
X39196Y256278D01*
G54D11*
X41362Y256278D02*
X41362Y256278D01*
G54D11*
X30529Y260322D02*
X29807Y261477D01*
X29807Y262286D01*
X30529Y263442D01*
X31974Y263788D01*
X39196Y263788D01*
G54D11*
X37318Y263788D02*
X38762Y263211D01*
X39196Y262055D01*
X38762Y260900D01*
X37318Y260322D01*
X34429Y260322D01*
X32985Y260900D01*
X32696Y262055D01*
X32985Y263211D01*
X34429Y263788D01*
G54D11*
X32696Y267833D02*
X39196Y267833D01*
G54D11*
X37751Y267833D02*
X38762Y268410D01*
X39196Y269566D01*
X38762Y270722D01*
X37751Y271299D01*
X32696Y271299D01*
G54D11*
X32696Y275344D02*
X32696Y275344D01*
G54D11*
X39196Y275344D02*
X39196Y275344D01*
G54D11*
X257778Y170564D02*
X254889Y159008D01*
X252000Y170564D01*
G54D11*
X245067Y165075D02*
X246222Y165508D01*
X247378Y165075D01*
X247956Y163630D01*
X247956Y160742D01*
X247378Y159297D01*
X246222Y159008D01*
X245067Y159297D01*
G54D11*
X238134Y165075D02*
X239289Y165508D01*
X240445Y165075D01*
X241023Y163630D01*
X241023Y160742D01*
X240445Y159297D01*
X239289Y159008D01*
X238134Y159297D01*
G54D11*
X252778Y240564D02*
X249889Y229008D01*
X247000Y240564D01*
G54D11*
X240067Y235075D02*
X241222Y235508D01*
X242378Y235075D01*
X242956Y233630D01*
X242956Y230742D01*
X242378Y229297D01*
X241222Y229008D01*
X240067Y229297D01*
G54D11*
X262778Y343064D02*
X259889Y331508D01*
X257000Y343064D01*
G54D11*
X249489Y331508D02*
X249489Y343064D01*
G54D11*
X249489Y336130D02*
X250067Y337575D01*
X251222Y338008D01*
X252378Y337575D01*
X252956Y336130D01*
X252956Y333242D01*
X252378Y331797D01*
X251222Y331508D01*
X250067Y331797D01*
X249489Y333242D01*
G54D11*
X152967Y17286D02*
X150656Y17286D01*
X150656Y13675D01*
X151233Y12230D01*
X152389Y11508D01*
X153544Y11508D01*
X154700Y12230D01*
X155278Y13675D01*
X155278Y20897D01*
X154700Y22342D01*
X153544Y23064D01*
X152389Y23064D01*
X151233Y22342D01*
X150656Y20897D01*
G54D11*
X146612Y11508D02*
X146612Y23064D01*
X141990Y11508D01*
X141990Y23064D01*
G54D11*
X137946Y11508D02*
X137946Y23064D01*
X135057Y23064D01*
X133901Y22342D01*
X133324Y20897D01*
X133324Y13675D01*
X133901Y12230D01*
X135057Y11508D01*
X137946Y11508D01*
G54D11*
X257778Y153064D02*
X254889Y141508D01*
X252000Y153064D01*
G54D11*
X247956Y141508D02*
X247956Y153064D01*
G54D11*
X247956Y146130D02*
X247378Y147575D01*
X246222Y148008D01*
X245067Y147575D01*
X244489Y146130D01*
X244489Y143242D01*
X245067Y141797D01*
X246222Y141508D01*
X247378Y141797D01*
X247956Y143242D01*
M02*
